<svg width="275" height="275" xmlns="http://www.w3.org/2000/svg">
 <!-- svg-source:excalidraw -->
 <defs>
  <style>@font-face {
        font-family: "Virgil";
        src: url("https://excalidraw.com/Virgil.woff2");
      }
      @font-face {
        font-family: "Cascadia";
        src: url("https://excalidraw.com/Cascadia.woff2");
      }
      @font-face {
        font-family: "Assistant";
        src: url("https://excalidraw.com/Assistant-Regular.woff2");
      }</style>
 </defs>
 <mask/>
 <mask/>
 <mask/>
 <mask/>
 <mask/>
 <mask/>
 <mask/>
 <mask/>
 <mask/>
 <mask/>
 <mask/>
 <mask/>
 <mask/>
 <mask/>
 <mask/>
 <mask/>
 <mask/>
 <mask/>
 <mask/>
 <mask/>
 <mask/>
 <mask/>
 <mask/>
 <mask/>
 <mask/>
 <mask/>
 <mask/>
 <mask/>
 <mask/>
 <mask/>
 <mask/>
 <mask/>
 <mask/>
 <mask/>
 <g>
  <title>background</title>
  <rect fill="#aad4ff" id="canvas_background" height="277" width="277" y="-1" x="-1"/>
 </g>
 <g>
  <title>Layer 1</title>
  <g id="svg_2" stroke-linecap="round">
   <g id="svg_3">
    <path id="svg_4" fill="none" stroke-width="4" stroke="#1e1e1e" d="m125.745971,66.097615c-11.04,16.2 -55.46,80.32 -66.57,96.22m68.63,-97.35c-11.11,16.52 -57.82,82.71 -69.36,98.97"/>
   </g>
  </g>
  <g stroke="null" id="svg_5" stroke-linecap="round">
   <path stroke="#1e1e1e" id="svg_6" fill="none" stroke-width="2" d="m35.958745,12.530784c62.460734,0.314293 124.722611,-2.767805 201.162936,0m-201.162936,0c49.018054,-0.547478 97.350055,-0.324431 201.162936,0m0,0c22.878406,0.324431 32.592532,11.791051 31.816993,32.443132m-31.816993,-32.443132c20.044705,-0.760386 33.059844,10.949557 31.816993,32.443132m0,0c-1.789706,60.313811 -1.063881,116.450569 0,188.29183m0,-188.29183c2.296789,54.960694 1.819534,112.050469 0,188.29183m0,0c0.31817,20.145158 -8.729787,34.075428 -31.816993,32.443132m31.816993,-32.443132c0.656225,21.544268 -9.216985,31.520531 -31.816993,32.443132m0,0c-61.655366,1.105094 -128.252309,1.571464 -201.162936,0m201.162936,0c-74.12365,-1.247033 -146.378052,-0.020277 -201.162936,0m0,0c-23.047434,-0.101385 -31.598251,-11.486897 -31.816993,-32.443132m31.816993,32.443132c-19.090196,-2.179773 -33.706127,-11.253712 -31.816993,-32.443132m0,0c-0.676111,-73.128848 -0.278399,-151.266105 0,-188.29183m0,188.29183c-1.083766,-53.622415 -1.043995,-109.728757 0,-188.29183m0,0c-0.904796,-19.739618 11.016634,-31.216377 31.816993,-32.443132m-31.816993,32.443132c1.13348,-23.004209 9.485441,-34.511382 31.816993,-32.443132"/>
  </g>
  <g id="svg_7" stroke-linecap="round">
   <g id="svg_8">
    <path id="svg_9" fill="none" stroke-width="4" stroke="#1e1e1e" d="m220.017396,115.331569c-11.3,15.84 -56.26,78.67 -67.14,94.5m68.77,-94.97c-10.9,15.96 -55.38,80.19 -66.58,96.32"/>
   </g>
  </g>
  <g id="svg_10" stroke-linecap="round">
   <g id="svg_11">
    <path id="svg_12" fill="none" stroke-width="4" stroke="#1e1e1e" d="m58.662486,165.146848c14.5,-0.2 73.01,-0.62 87.82,-0.57m-89.33,-0.62c14.8,-0.1 76.62,1.25 91.58,1.73"/>
   </g>
  </g>
  <g id="svg_13" stroke-linecap="round">
   <g id="svg_14">
    <path id="svg_15" fill="none" stroke-width="4" stroke="#1e1e1e" d="m219.89766,108.145758c-16.09,-0.07 -80.4,-0.39 -96.57,-0.45m98.39,-0.52c-16.15,0.09 -82.5,1.59 -99.08,1.88"/>
   </g>
  </g>
  <g id="svg_16" stroke-linecap="round">
   <path id="svg_17" fill="none" stroke-width="4" stroke="#1e1e1e" d="m137.719162,125.06979c2.52,0.06 6.03,1.79 7.87,3.68c1.85,1.88 3.01,4.82 3.21,7.6c0.21,2.78 -0.55,6.83 -1.97,9.05c-1.41,2.22 -4.11,3.59 -6.53,4.27c-2.43,0.68 -5.66,0.95 -8.02,-0.17c-2.36,-1.12 -5.02,-4.16 -6.15,-6.57c-1.14,-2.41 -1.34,-5.34 -0.68,-7.91c0.66,-2.57 2.56,-5.91 4.66,-7.53c2.1,-1.61 6.57,-1.69 7.94,-2.14c1.38,-0.44 0.29,-0.61 0.33,-0.51m-1.06,-0.39c2.41,0.06 5.85,2.12 7.76,4.03c1.91,1.9 3.25,4.64 3.69,7.4c0.44,2.75 0.32,6.68 -1.04,9.13c-1.36,2.44 -4.57,4.78 -7.12,5.52c-2.55,0.73 -5.82,-0.03 -8.18,-1.12c-2.37,-1.1 -4.81,-3.11 -6.02,-5.43c-1.21,-2.33 -1.86,-5.78 -1.25,-8.5c0.62,-2.71 2.76,-5.98 4.93,-7.8c2.16,-1.82 6.81,-2.58 8.05,-3.1c1.24,-0.52 -0.46,-0.4 -0.62,-0.02"/>
  </g>
  <g id="svg_18" stroke-linecap="round">
   <g id="svg_19">
    <path id="svg_20" fill="none" stroke-width="4" stroke="#1e1e1e" d="m74.368088,63.452946c-9.45,16.29 -48.17,81.18 -57.68,97.2m56.65,-97.94c-9.05,15.96 -44.92,79.97 -54.41,96.33"/>
   </g>
  </g>
  <g id="svg_21" stroke-linecap="round">
   <g id="svg_22">
    <path id="svg_23" fill="none" stroke-width="4" stroke="#1e1e1e" d="m23.287195,176.164137c14.31,4.93 71.97,24.05 86.5,28.95m-84.76,-29.53c14.71,4.55 72.96,23.02 87.07,27.71"/>
   </g>
  </g>
  <g id="svg_24" stroke-linecap="round">
   <g id="svg_25">
    <path id="svg_26" fill="none" stroke-width="4" stroke="#1e1e1e" d="m167.856225,56.704297c13.33,7.88 67.48,39.17 80.9,47.35m-79.23,-48.41c13.19,8.03 65.42,41.57 78.42,49.62"/>
   </g>
  </g>
  <g id="svg_27" stroke-linecap="round">
   <g id="svg_28">
    <path id="svg_29" fill="none" stroke-width="4" stroke="#1e1e1e" d="m252.910006,119.660628c-10.97,15.84 -54.77,79.04 -65.41,95.25m67.13,-95.89c-11.13,15.88 -57.36,80.96 -68.31,96.99"/>
   </g>
  </g>
  <g id="svg_30" stroke-linecap="round">
   <g id="svg_31">
    <path id="svg_32" fill="none" stroke="#1e1e1e" d="m44.629063,63.519966c-4.67,18.22 -24.25,90.05 -29.23,108.18m28.34,-108.78c-4.73,17.87 -23.87,88.91 -28.81,106.83"/>
   </g>
  </g>
  <g id="svg_33" stroke-linecap="round">
   <g id="svg_34">
    <path id="svg_35" fill="none" stroke="#1e1e1e" d="m11.182194,173.944022c14.84,-21.12 75.13,-106.47 90.23,-127.82m-88.51,127.4c14.73,-21.51 73.18,-108.35 87.97,-129.42"/>
   </g>
  </g>
  <g id="svg_36" stroke-linecap="round">
   <g id="svg_37">
    <path id="svg_38" fill="none" stroke="#1e1e1e" d="m26.884773,178.570265c17.15,9 84.11,44.92 100.62,53.99m-101.49,-51.91c17.16,9.21 83.94,44.03 101.01,52.9"/>
   </g>
  </g>
  <g id="svg_39" stroke-linecap="round">
   <g id="svg_40">
    <path id="svg_41" fill="none" stroke="#1e1e1e" d="m30.531991,180.640265c18.03,3.55 89.84,17.67 107.76,21.41m-105.75,-21.91c17.91,4.26 87.24,19.89 104.65,23.4"/>
   </g>
  </g>
  <g id="svg_42" stroke-linecap="round">
   <g id="svg_43">
    <path id="svg_44" fill="none" stroke="#1e1e1e" d="m172.968304,41.265706c13.81,11.08 68.73,55.67 82.4,66.73m-80.45,-67.71c13.79,10.68 66.57,54.41 79.8,65.87"/>
   </g>
  </g>
  <g id="svg_45" stroke-linecap="round">
   <g id="svg_46">
    <path id="svg_47" fill="none" stroke="#1e1e1e" d="m162.232066,77.267964c16.48,5.15 82.31,25.62 98.72,31.07m-96.84,-32.17c16.45,5.25 80.24,27.81 96.25,33.09"/>
   </g>
  </g>
  <g id="svg_48" stroke-linecap="round">
   <g id="svg_49">
    <path id="svg_50" fill="none" stroke="#1e1e1e" d="m190.637174,235.923181c10.72,-19.89 52.94,-98.32 63.47,-118.18m-64.7,120.4c10.57,-19.72 53.02,-98.76 63.57,-118.85"/>
   </g>
  </g>
  <g id="svg_51" stroke-linecap="round">
   <g id="svg_52">
    <path id="svg_53" fill="none" stroke="#1e1e1e" d="m169.623822,222.213371c14.95,-18.7 75.27,-94.2 90.03,-112.96m-88.4,112.23c14.93,-18.57 72.94,-92.72 87.85,-111.18"/>
   </g>
  </g>
  <g id="svg_54" stroke-linecap="round">
   <g id="svg_55">
    <path id="svg_56" fill="none" stroke-width="0.5" stroke="#1e1e1e" d="m19.605729,170.283149c11.72,-25.45 59.34,-126.35 71.65,-151.72m-69.81,150.45c12.01,-25.86 59.94,-127.44 71.9,-152.4"/>
   </g>
  </g>
  <g id="svg_57" stroke-linecap="round">
   <g id="svg_58">
    <path id="svg_59" fill="none" stroke-width="0.5" stroke="#1e1e1e" d="m247.756482,123.129191c-21.05,23.02 -105.7,114.02 -126.89,137.05m126.04,-137.94c-21.16,23.2 -105.3,115.5 -126.41,138.9"/>
   </g>
  </g>
  <g id="svg_60" stroke-linecap="round">
   <g id="svg_61">
    <path id="svg_62" fill="none" stroke-width="0.5" stroke="#1e1e1e" d="m210.881461,83.947861c-15.31,-9.28 -76.28,-46.66 -91.51,-55.95m93.26,58.07c-14.87,-8.99 -75.24,-47.19 -90.94,-56.61"/>
   </g>
  </g>
  <g id="svg_63" stroke-linecap="round">
   <g id="svg_64">
    <path id="svg_65" fill="none" stroke-width="0.5" stroke="#1e1e1e" d="m27.588384,177.414828c19.91,-27.7 99.12,-136.43 118.78,-163.93m-119.65,165.95c19.79,-27.53 99.45,-140 119.13,-167.63"/>
   </g>
  </g>
  <g id="svg_66" stroke-linecap="round">
   <g id="svg_67">
    <path id="svg_68" fill="none" stroke-width="0.5" stroke="#1e1e1e" d="m28.811092,173.713067c28.76,14.75 143.05,74 171.66,88.69m-173.15,-86.47c28.69,14.47 143.49,70.2 172.21,84.77"/>
   </g>
  </g>
  <g id="svg_69" stroke-linecap="round">
   <g id="svg_70">
    <path id="svg_71" fill="none" stroke-width="0.5" stroke="#1e1e1e" d="m258.033738,109.368953c-13.02,25.79 -63.8,129.46 -76.76,155.33m78.39,-156.38c-13.13,25.43 -65.47,129.05 -78.84,154.79"/>
   </g>
  </g>
  <g id="svg_72" stroke-linecap="round">
   <g id="svg_73">
    <path id="svg_74" fill="#6b3636" stroke-width="4" stroke="#1e1e1e" d="m59.92046,162.659903c11.24,-16.74 55.23,-84.18 66.3,-101.16m-67.54,100.21c11.22,-16.5 55.83,-82.08 67.06,-98.75"/>
   </g>
  </g>
  <g id="svg_75" stroke-linecap="round">
   <g id="svg_76">
    <path id="svg_77" fill="none" stroke-width="4" stroke="#1e1e1e" d="m60.945383,165.701398c14.61,0.19 73.19,0.49 87.99,0.73m-89.53,-1.46c14.95,0.36 76.73,2.86 91.62,2.86"/>
   </g>
  </g>
  <g id="svg_78" stroke-linecap="round">
   <g id="svg_79">
    <path id="svg_80" fill="none" stroke-width="4" stroke="#1e1e1e" d="m126.65911,104.350698c15.7,0.15 78.84,1.54 94.57,1.93m-96.13,-3.11c16.08,-0.29 82.07,0.91 98.46,1.17"/>
   </g>
  </g>
  <g id="svg_81" stroke-linecap="round">
   <g id="svg_82">
    <path id="svg_83" fill="none" stroke-width="4" stroke="#1e1e1e" d="m223.322729,109.038818c-11.47,16.25 -57.59,81.59 -69.17,97.95m71.12,-98.61c-11.54,16.44 -59.97,80.81 -72.02,96.99"/>
   </g>
  </g>
  <g id="svg_84" stroke-linecap="round">
   <g id="svg_85">
    <path id="svg_86" fill="none" stroke-width="0.5" stroke="#1e1e1e" d="m11.505391,198.744167c11.48,10.8 57.32,53.55 68.68,64.08m-69.71,-65.03c11.22,10.5 56.56,52.4 68.48,63.3"/>
   </g>
  </g>
  <g id="svg_87" stroke-linecap="round">
   <g id="svg_88">
    <path id="svg_89" fill="none" stroke-width="0.5" stroke="#1e1e1e" d="m263.110305,197.85406c-40.38,8.91 -202.53,45.33 -243.04,54.14m242.17,-55.16c-40.06,9.06 -200.07,47.69 -240.05,56.79"/>
   </g>
  </g>
  <g id="svg_90" stroke-linecap="round">
   <g id="svg_91">
    <path id="svg_92" fill="none" stroke-width="0.5" stroke="#1e1e1e" d="m17.274046,58.06498c37.48,-7.07 187.43,-34.6 224.94,-41.52m-222.95,43.73c37.89,-6.87 188.27,-35.14 225.25,-42.21"/>
   </g>
  </g>
  <g id="svg_93" stroke-linecap="round">
   <g id="svg_94">
    <path id="svg_95" fill="none" stroke-width="0.5" stroke="#1e1e1e" d="m35.147314,14.881803c37.94,7.73 189.68,39.71 227.5,47.69m-228.94,-48.93c37.9,7.81 190.62,41.83 228.6,50.21"/>
   </g>
  </g>
  <g id="svg_96" stroke-linecap="round">
   <g id="svg_97">
    <path id="svg_98" fill="none" stroke-width="0.5" stroke="#1e1e1e" d="m260.27262,117.570033c-6.97,24.15 -34.75,119.47 -41.88,143.37m40.9,-144.22c-7.12,24.42 -34.23,121.39 -41.3,145.64"/>
   </g>
  </g>
  <g id="svg_99" stroke-linecap="round">
   <g id="svg_100">
    <path id="svg_101" fill="none" stroke-width="0.5" stroke="#1e1e1e" d="m187.185674,18.753911c12.53,15.41 62.36,78.06 75.03,93.74m-75.97,-95.03c12.27,14.97 62.1,77.5 74.86,93.06"/>
   </g>
  </g>
  <g stroke="null" id="svg_102" stroke-linecap="round">
   <g stroke="null" id="svg_103">
    <path stroke="#1e1e1e" id="svg_104" fill="none" stroke-width="0.5" d="m10.598111,167.556732c14.652303,-23.880863 72.882413,-118.929255 87.553671,-142.883204m-88.491949,141.997035c14.415364,-24.20975 72.645474,-119.888509 87.345165,-143.495299"/>
   </g>
  </g>
  <g id="svg_105" stroke-linecap="round">
   <g id="svg_106">
    <path id="svg_107" fill="none" stroke-width="0.5" stroke="#1e1e1e" d="m17.621627,172.181264c17.13,15.52 85.56,77.19 102.61,92.63m-103.68,-93.67c16.93,15.18 85.69,75.81 102.76,91.66"/>
   </g>
  </g>
 </g>
</svg>